<svg version="1.1" xmlns="http://www.w3.org/2000/svg" xmlns:xlink="http://www.w3.org/1999/xlink" width="238.92498" height="218.00002" viewBox="0,0,238.92498,218.00002"><g transform="translate(-107.97001,-62.5)"><g data-paper-data="{&quot;isPaintingLayer&quot;:true}" fill="#aaff00" fill-rule="nonzero" stroke="none" stroke-width="0.5" stroke-linecap="butt" stroke-linejoin="miter" stroke-miterlimit="10" stroke-dasharray="" stroke-dashoffset="0" style="mix-blend-mode: normal"><path d="M134.03593,190.68885c-1.13525,0.02094 -2.25735,-0.12907 -3.37414,-0.34819c-1.75319,-0.19811 -3.45144,-0.57755 -5.07556,-1.11912c-2.03774,-0.35386 -2.98186,0.00875 -4.11271,-1.79902c-7.64759,-4.20432 -12.85762,-12.29394 -12.97161,-21.61038c-0.32014,-0.55652 -0.57526,-1.21284 -0.52572,-1.85295c0.3842,-4.96443 2.34285,-9.32477 5.25964,-13.10345c1.20845,-1.66929 2.6181,-3.18338 4.19338,-4.50668c5.89441,-5.35353 13.63411,-9.19036 20.559,-11.60728c15.21861,-5.31157 34.02007,-0.92923 49.44276,0.93004c3.50928,0.42306 7.07175,0.78868 10.67196,1.10733c-0.0311,-6.73745 0.07602,-13.68185 0.52114,-18.76674c0.99601,-11.37788 0.85261,-23.11626 4.14852,-34.21701c1.03635,-3.49048 2.8332,-8.29518 5.51076,-12.28765c2.58366,-3.85244 5.98735,-6.94862 10.3191,-7.37806c2.76428,-1.05302 5.76357,-1.62969 8.89755,-1.62969c4.62108,0 8.94932,1.25378 12.66311,3.43973c1.88989,0.72723 3.62466,1.69661 5.06116,3.1296c2.55232,2.54609 4.23906,5.47753 5.29969,8.67258c1.27228,2.99815 1.97605,6.29593 1.97605,9.75809c0,1.84185 -0.19918,3.63718 -0.57717,5.36563c-0.65479,9.76062 -3.25805,20.13131 -3.42283,28.88127c-0.0536,2.84637 0.09204,9.72585 0.1677,17.46554c3.26403,0.0972 6.50107,0.19532 9.69981,0.30202c11.82453,0.39444 23.64998,0.80088 35.47964,0.98555c10.51922,0.16421 21.35271,-2.16097 31.55909,0.39063c18.4442,4.61105 27.4367,21.1264 17.1875,39.0625c-8.69661,15.21907 -37.77441,10.6742 -49.44042,10.51221c-15.44509,-0.21447 -30.86941,-0.88469 -46.29821,-1.39145c-0.96008,15.08136 -1.95141,30.15645 -2.35511,45.25853c-0.325,12.1578 3.56677,34.1964 -10.54687,42.26134c-4.33302,2.47601 -9.46256,3.90625 -14.45312,3.90625c-14.69739,0 -24.78718,-10.88562 -25,-25c-0.34799,-23.07896 1.56829,-45.93856 2.88617,-68.86327c-1.29371,-0.06901 -2.58896,-0.11717 -3.88617,-0.13673c-13.46074,-0.20301 -26.86633,-4.98868 -40.33986,-3.64133l-6.4454,3.86724c-2.78825,1.73957 -5.9441,2.94502 -9.32438,3.47318c-1.09858,0.28466 -2.21342,0.46871 -3.35443,0.48975z"/></g></g></svg>