<svg version="1.1" xmlns="http://www.w3.org/2000/svg" xmlns:xlink="http://www.w3.org/1999/xlink" width="171.10983" height="236.01683" viewBox="0,0,171.10983,236.01683"><g transform="translate(-137.99994,-81.99948)"><g data-paper-data="{&quot;isPaintingLayer&quot;:true}" fill="#000000" fill-rule="nonzero" stroke="none" stroke-width="0.5" stroke-linecap="butt" stroke-linejoin="miter" stroke-miterlimit="10" stroke-dasharray="" stroke-dashoffset="0" style="mix-blend-mode: normal"><path d="M138,187.5c0,-2.5 2.5,-2.5 2.5,-2.5l1.98082,0.00007c8.79444,-0.06746 18.17922,-1.21301 26.59389,-4.01737c3.05461,-1.01801 5.71872,-3.0179 8.7667,-4.05558c0.04042,-0.01376 0.32386,-0.07042 0.77244,-0.15607c-1.03058,-0.91998 -2.19312,-1.73905 -3.10669,-2.76432c-2.1975,-2.4662 -4.75424,-4.5926 -6.99123,-7.02305c-4.57969,-4.97575 -7.1986,-11.56556 -11.05405,-17.03588c-2.8435,-4.03451 -5.54553,-7.89473 -8.10563,-12.16156c0,0 -1.28624,-2.14373 0.85749,-3.42997c2.14373,-1.28624 3.42997,0.85749 3.42997,0.85749c2.49923,4.16538 5.12543,7.89802 7.89437,11.83844c3.70666,5.27486 6.22072,11.76919 10.64943,16.53745c3.45849,3.72366 8.53962,7.16012 11.64513,11.41625c0.10832,-0.75613 0.31963,-1.43487 0.63922,-1.96767c0.72108,-1.20211 4.12753,-0.99131 3.54303,-2.26543c-1.17374,-2.55858 -3.2811,-4.58645 -4.68277,-7.02762c-3.40955,-5.93812 -6.61274,-12.04804 -9.99443,-17.99035c-0.69692,-1.22462 -1.04606,-2.64702 -1.86583,-3.79304c-1.37638,-1.92414 -3.1681,-2.95321 -4.12483,-4.70323c-0.36854,0.41603 -0.94509,0.74146 -1.84707,0.74146c-2.5,0 -2.5,-2.5 -2.5,-2.5l1.32036,-5.20419c1.98247,0.81214 4.18623,1.21659 5.94741,2.43642c1.0549,0.73065 1.3436,2.19741 2.16559,3.18279c0.93882,1.12544 2.24363,1.93006 3.09475,3.1232c0.91317,1.28012 1.35175,2.84299 2.13417,4.20696c3.40787,5.94083 6.59179,12.06179 10.00557,18.00965c1.04395,1.81889 5.11999,7.29623 5.31723,8.97238c0.20744,1.76286 -0.62804,3.63906 -1.71731,5.04056c-0.22854,0.29405 -0.58937,0.37235 -0.98771,0.39579c0.31034,0.3055 0.56318,0.74884 0.67962,1.38923c0.24749,1.36118 -0.39526,2.10605 -1.01873,2.49987c0.5824,0.546 1.45032,0.88687 1.68568,1.63302c0.05787,0.18347 0.10825,0.36845 0.15218,0.55472l0.0929,-0.03097l0.75564,2.26692c1.72106,-1.39444 3.54283,-2.67648 5.10488,-4.24412c0.84832,-0.85135 1.14099,-2.15944 2,-3c2.63549,-2.57886 7.35521,-4.78412 10.62801,-6.45731c2.66288,-1.36137 5.54625,-2.2561 8.39648,-3.16188c1.16109,-0.36898 2.98237,-0.68212 4.5937,-1.16781c-0.61015,-0.54138 -1.16476,-1.10782 -1.28355,-1.87086c-0.8135,-5.22559 4.83778,-7.83187 7.49977,-11.15935c0.80162,-1.00203 1.25972,-2.27391 2.16559,-3.18279c0.84842,-0.85125 2.07557,-1.23197 3,-2c0.65687,-0.54574 2.15556,-2.11725 1.30599,-2.20413c-0.62957,-0.06438 -1.21381,0.5145 -1.84368,0.45316c-1.23764,-0.12052 -2.35532,-0.96004 -3.5986,-0.98311c-2.62535,-0.04872 -6.97811,2.88812 -9.13923,3.81154c-3.18815,1.36226 -6.21205,2.15651 -9.65125,2.17157c-2.04885,0.51221 -6.36537,2.02216 -8.507,0.71106c-1.54285,-0.94453 -2.30539,-2.81674 -3.16554,-4.40817c-2.79381,-5.16901 -2.75715,-12.34211 -2.11418,-18.08962c0.3889,-3.47639 1.52742,-4.64666 2,-8c0.51341,-3.64306 -1.18215,-4.05317 1.43773,-8.13466c1.18477,-1.84574 3.75588,-2.41966 5.11018,-4.14485c3.074,-3.91581 7.10549,-7.52194 9.79744,-11.71421c2.49693,-3.88856 2.87022,-9.46045 6.57159,-12.65092c1.19397,-1.02917 2.97892,-1.03204 4.46838,-1.54805c4.72121,1.08522 9.22133,2.63367 13.8348,4.10984c0.77127,0.24678 1.45143,0.90016 2.26114,0.88832c0.90708,-0.01326 1.65529,-0.79239 2.5471,-0.95863c1.07748,-0.20086 2.21997,0.12773 3.28559,-0.12868c2.70909,-0.65187 4.7995,-2.92403 7.44284,-3.80541c1.05138,-0.35057 2.23045,0.10508 3.324,-0.07499c1.16882,-0.19246 2.21617,-1.05772 3.40046,-1.03228c4.21067,0.09044 7.60403,3.50317 11.09838,5.25421c3.213,1.61006 7.0746,2.32977 10.37132,3.69391c3.08115,1.27494 5.52727,3.73248 8.25133,5.65562c4.33299,3.05902 9.03461,5.10287 13.30708,8.43448c0.9429,2.5856 2.1219,5.39688 2.45316,8.15632c0.45751,3.81101 -0.30134,9.26462 -2.35464,12.61979c-3.1167,5.0928 -10.99617,7.82381 -15.8123,10.8123c-2.17822,1.35162 -3.71915,3.58513 -5.89899,4.93415c-1.5038,0.93064 -3.21406,1.47667 -4.83094,2.19306c-5.45548,2.41715 -11.04019,3.00372 -16.72451,5.09363c-1.59898,0.58788 -3.55269,1.50604 -5.1495,1.38509c0.11054,0.33038 0.24232,0.65121 0.41623,0.95312c0.59591,1.03448 2.07268,1.56923 2.3065,2.73995c0.32359,1.62018 -1.35007,3.34283 -1.29124,4.90181c0.45759,-0.50803 1.12056,-0.82743 1.85812,-0.82743c0.88153,0 1.6565,0.45626 2.10163,1.14551l1.97849,2.96774l-0.23884,0.15923l0.55144,0.50307c0.06069,2.10728 -0.27159,4.24454 0.07499,6.324c0.19474,1.16845 1.02631,2.21591 1.03228,3.40046c0.00532,1.05408 -0.97405,1.94623 -1,3c-0.06334,2.57199 2.57164,6.00085 2.96772,8.59954c0.59954,3.9336 -1.41388,6.20818 -2.00248,9.81591c-0.70394,4.3147 -1.14193,8.71555 -2.01379,13.07484c0,0 -0.49029,2.45145 -2.94174,1.96116c-1.14198,-0.2284 -1.64559,-0.88237 -1.85776,-1.51586c-0.72502,0.56441 -1.65195,0.56441 -1.65195,0.56441h-2c-2.5332,0 -5.08633,-0.34988 -7.59954,-0.03228c-3.34128,0.42224 -4.79104,3.27674 -7.43194,4.79462c-1.4281,0.82081 -3.21019,0.92866 -4.59228,1.82477c-5.775,3.74434 -8.81657,10.60389 -12.2496,16.22723c-1.89877,3.1102 -4.06352,6.09793 -6.08578,9.1296c-1.95387,2.60619 -4.13279,5.05615 -5.87653,7.80736c-1.39028,2.19353 -1.76139,4.92133 -3.09415,7.15028c-0.46647,0.78014 -1.46731,1.13853 -1.94354,1.91276c-2.52517,4.10523 -2.022,9.61948 -2.65891,14.08613c-0.1488,1.04354 -0.82049,1.9613 -1,3c-0.25096,1.45216 0.05095,2.95051 0.09211,4.42774c-0.21931,0.82331 -0.3362,1.68839 -0.3362,2.58078c0,0.11314 0.00188,0.22584 0.00561,0.33807c-0.26099,0.79048 -0.42606,1.6246 -0.48141,2.48856c-0.82651,4.01351 -1.80868,8.01275 -2.26656,12.06985c-0.36241,3.21113 0.01873,6.46302 0.01873,9.69454c0,0 0,2.5 -2.5,2.5c-2.5,0 -2.5,-2.5 -2.5,-2.5c0,-0.40974 -0.00588,-10.08061 0.01873,-10.30546c0.58968,-5.38637 2.091,-10.70384 3.00606,-16.04571c0.34045,-1.98748 -0.31357,-4.05858 0.00749,-6.04929c0.16784,-1.04064 0.85064,-1.95654 1,-3c0.4344,-3.03491 0.29393,-6.16361 1.03085,-9.13957c0.12195,-0.49249 2.14146,-6.48735 2.31025,-6.77431c0.49519,-0.84187 1.55016,-1.25201 2.05646,-2.08724c1.28566,-2.12096 1.59056,-4.747 2.90585,-6.84972c0.15441,-0.24685 5.81965,-7.78772 6.12347,-8.19264c5.79881,-8.70335 10.69379,-20.68995 19.66462,-26.64317c1.40494,-0.93235 3.22629,-1.05642 4.69248,-1.88914c3.34219,-1.89817 5.05222,-4.8362 9.28329,-5.49148c0.27159,-0.04206 7.89855,-0.03228 8.40046,-0.03228h2c0,0 1.20951,0 1.94595,0.84129c0.60575,-3.59739 0.98057,-7.21133 1.58881,-10.75674c0.4769,-2.77988 2.54971,-5.2466 1.99752,-8.18409c-0.51416,-2.73522 -2.46039,-5.53586 -2.93066,-8.34166c0.1037,-0.13616 0.20232,-0.27423 0.29555,-0.41407c0.20154,-0.30232 0.21215,-1.1923 0.14136,-2.23802c0.23504,-0.45554 0.45862,-0.91337 0.46147,-1.4067c0.00173,-0.30049 -0.08382,-0.58391 -0.20533,-0.86092c-0.14409,0.0874 -0.29772,0.16065 -0.45896,0.21782c-0.12092,-0.99734 -0.25271,-1.89419 -0.30684,-2.34157c-0.13767,-1.13777 0.19264,-2.35287 -0.19072,-3.43292c-0.03396,-0.09567 -2.5113,-2.31545 -2.70239,-2.52913c-1.14579,-1.28125 -0.34742,-3.97256 -1.40163,-5.32169c-0.24535,-0.31399 -0.86205,-0.77873 -1.66212,-1.3004c0.22123,-0.66495 1.13256,-1.17032 0.99487,-1.85682c-0.13837,-0.68988 -1.31748,-0.66534 -1.6935,-1.26005c-0.53726,-0.84974 -0.65612,-1.89787 -0.95516,-2.86058l-1.68598,-1.68598l0.56292,-0.56292l-1.10485,-2.16156c0.76185,-0.22144 1.53296,-0.40583 2.3097,-0.56702v-0.97627h3v0.44284c0.86698,-0.13739 1.73514,-0.26804 2.59954,-0.41056c4.17192,-0.68784 7.80281,-3.33016 12.08067,-4.01174c0.92204,-0.14691 1.89875,0.27484 2.80081,0.03392c5.94876,-1.58878 9.25216,-5.56561 14.20465,-8.68109c3.27643,-2.06112 6.67579,-3.79384 9.92758,-5.9535c0.58371,-0.38767 3.64874,-2.18038 4.26012,-3.2342c1.43114,-2.46679 2.01002,-6.60444 1.64536,-9.38021c-0.09893,-0.75302 -1.21527,-4.66216 -1.54684,-5.84368c-3.87016,-2.744 -8.32687,-4.60211 -12.1577,-7.28982c-2.41267,-1.69273 -4.49048,-4.00067 -7.22816,-5.09222c-3.42614,-1.36605 -7.36184,-2.17594 -10.68441,-3.83395c-2.46833,-1.23173 -5.91871,-4.84731 -8.90162,-4.74579c-0.92407,0.03145 -1.6879,0.81345 -2.59954,0.96772c-0.87984,0.14889 -1.82941,-0.35707 -2.676,-0.07499c-0.99344,0.33101 -1.62341,1.35273 -2.56059,1.81983c-1.69433,0.84447 -3.44818,1.616 -5.28134,2.08867c-1.10817,0.28574 -2.3022,-0.03896 -3.42964,0.15741c-1.18434,0.20628 -2.25078,1.05312 -3.4529,1.04137c-1.30015,-0.01271 -2.49044,-0.74838 -3.73886,-1.11168c-4.1127,-1.19683 -8.05004,-2.73359 -12.1652,-3.89016c-4.2726,1.26074 -4.76013,8.36795 -6.96003,11.80102c-2.7937,4.35974 -6.93862,8.27124 -10.20256,12.28579c-1.30936,1.61047 -3.68834,2.16266 -4.88982,3.85515c-0.95173,1.34067 -0.35998,4.46663 -0.56227,5.86534c-0.39345,2.72043 -1.69879,5.26782 -2,8c-0.56072,5.08616 -0.43438,10.54402 1.59972,15.19515c0.34256,0.7833 0.44387,1.78455 1.12055,2.30706c0.40121,0.30981 0.9995,-0.17314 1.493,-0.28894c1.33803,-0.31397 2.66667,-0.66667 4,-1c5.7243,0.0267 10.18291,-3.18964 15.51489,-4.89044c1.22662,-0.39127 2.40723,-1.10903 3.69463,-1.12645c1.50564,-0.02038 2.91736,0.76196 4.4014,1.01689c1.37353,0.23595 3.14177,-0.50232 4.15632,0.45316c5.71472,5.38204 -0.57756,8.69052 -3.69401,11.79587c-1.4748,1.46955 -2.44535,3.39067 -3.89001,4.88778c-1.08211,0.65765 -2.0295,1.51491 -2.79108,2.52066c-0.96845,0.93747 -1.79341,1.87362 -1.65356,2.24941c0.0501,0.13462 0.1354,0.24089 0.24275,0.32942c-0.39581,1.07602 -0.61191,2.23891 -0.61191,3.45226c0,0.78203 0.08977,1.54309 0.25956,2.27344c-0.50255,0.55865 -0.96621,1.11359 -1.38687,1.66622c-4.10579,1.62493 -8.88388,2.05891 -12.7969,4.0781c-2.79474,1.44214 -7.17205,3.28468 -9.37199,5.54269c-0.8387,0.86083 -1.14875,2.15158 -2,3c-1.90213,1.89582 -4.1051,3.46399 -6.18279,5.16559c-2.21163,1.8113 -6.04592,2.24786 -7.59821,4.58413c-2.11966,3.1902 -3.77532,6.66951 -5.90664,9.86927c-2.15988,3.23842 -3.80796,6.97147 -6.06733,10.09603c-1.29083,1.78514 -2.87423,3.43286 -3.7031,5.47393c-1.17723,2.89888 -1.2773,6.12675 -1.82632,9.207c-0.68032,3.81689 -2.25379,7.53432 -3.03576,11.34537c-0.65052,3.17043 -0.58895,6.44618 -0.90759,9.66693c-0.81825,8.27055 -1.97838,16.5585 -2.84046,24.8116c-0.67719,6.48302 -0.19814,13.2289 -0.19893,19.73862c-0.00091,7.44158 0.46813,14.38297 1.93139,21.68638l0.01942,0.0971c0,0 0.49029,2.45145 -1.96116,2.94174c-2.45145,0.49029 -2.94174,-1.96116 -2.94174,-1.96116l-0.01942,-0.0971c-1.52225,-7.62421 -2.02943,-14.89957 -2.02849,-22.66757c0.00081,-6.68751 -0.45895,-13.59231 0.22554,-20.25322c0.84738,-8.24602 2.0241,-16.52554 2.83803,-24.78764c0.33469,-3.39743 0.30935,-6.84813 0.98816,-10.19384c0.76231,-3.75723 2.34564,-7.43854 3.00765,-11.1994c0.60488,-3.43627 0.80012,-7.02263 2.13027,-10.24824c0.99293,-2.40785 2.75851,-4.4244 4.2969,-6.52607c2.22028,-3.03322 3.82187,-6.73644 5.93267,-9.90397c2.14916,-3.2208 3.81524,-7.04564 6.09336,-10.13073c1.20227,-1.62815 2.59037,-2.36916 4.03945,-3.0142l-1.49053,-0.63006l0.05875,-0.13899l-0.4818,-0.09009c-1.42191,-1.43162 -3.08476,-2.6588 -4.26573,-4.29485c-0.13774,-0.19081 -0.23741,-0.40053 -0.31505,-0.62134c-0.53178,0.1291 -1.05813,0.27918 -1.57714,0.45761c-3.06936,1.05515 -5.76162,3.05409 -8.84067,4.08062c-8.89535,2.96561 -18.82416,4.1974 -28.12134,4.26872l-2.01918,0.00007c0,0 -2.5,0 -2.5,-2.5z"/></g></g></svg>