<svg version="1.1" xmlns="http://www.w3.org/2000/svg" xmlns:xlink="http://www.w3.org/1999/xlink" width="219.6382" height="144.89427" viewBox="0,0,219.6382,144.89427"><defs><linearGradient x1="245.65195" y1="109.10957" x2="245.65195" y2="246.25294" gradientUnits="userSpaceOnUse" id="color-1"><stop offset="0" stop-color="#ff0000"/><stop offset="1" stop-color="#ff0000" stop-opacity="0.52419"/></linearGradient></defs><g transform="translate(-130.0559,-105.99611)"><g data-paper-data="{&quot;isPaintingLayer&quot;:true}" fill-rule="nonzero" stroke-linecap="butt" stroke-linejoin="miter" stroke-miterlimit="10" stroke-dasharray="" stroke-dashoffset="0" style="mix-blend-mode: normal"><path d="M130.3059,247.43439v-136.29752h217v136.29752z" fill="#0097ff" stroke="#000000" stroke-width="0.5"/><text transform="translate(132.43893,152.45933) scale(1.06812,1.06812)" font-size="40" xml:space="preserve" fill="#000000" fill-rule="nonzero" stroke="none" stroke-width="1" stroke-linecap="butt" stroke-linejoin="miter" stroke-miterlimit="10" stroke-dasharray="" stroke-dashoffset="0" font-family="Sans Serif" font-weight="normal" text-anchor="start" style="mix-blend-mode: normal"><tspan x="0" dy="0">Pogolohe</tspan><tspan x="0" dy="48px">Maps</tspan></text><text transform="translate(163.63855,239.68994) scale(0.93337,0.93337)" font-size="40" xml:space="preserve" fill="#e2ff00" fill-rule="nonzero" stroke="none" stroke-width="1" stroke-linecap="butt" stroke-linejoin="miter" stroke-miterlimit="10" stroke-dasharray="" stroke-dashoffset="0" font-family="Sans Serif" font-weight="normal" text-anchor="start" style="mix-blend-mode: normal"><tspan x="0" dy="0">ALPHA!!!</tspan></text><path d="M326.64109,121.14257c0.92072,1.6186 -0.56931,2.61878 -0.56931,2.61878l-0.6987,0.469c-5.17767,3.47548 -10.17553,7.31687 -15.37784,10.71651c-7.92519,5.16178 -15.43075,11.25586 -23.51572,16.13347c-1.95882,1.18174 -4.09301,1.98505 -6.10177,3.06332c-5.66239,3.03946 -11.12694,6.48718 -16.74333,9.5991c-3.38381,1.8749 -6.98157,3.35308 -10.41764,5.15854c4.62711,3.45433 9.25779,6.90315 13.92595,10.28748c3.16673,2.7494 6.47148,4.99455 9.74319,7.55982c5.67832,4.45226 10.94308,9.49421 16.54019,14.03346c9.24372,7.49665 18.95263,14.36074 27.11665,23.26196c2.55295,1.96126 5.37173,3.84723 7.60439,6.24884c1.54811,1.66526 2.86967,3.67808 4.74483,4.88307c4.20209,2.70029 8.61444,5.02172 13.18706,6.8436l2.19561,0.47146c0,0 1.71753,0.37315 1.37403,2.23889c-0.34351,1.86574 -2.06104,1.49259 -2.06104,1.49259l-2.45338,-0.53857c-4.85624,-1.90384 -9.61541,-4.3299 -14.04275,-7.24367c-2.10398,-1.3847 -3.67233,-3.56087 -5.41379,-5.4483c-2.13248,-2.31123 -4.95949,-4.15538 -7.39543,-6.04079c-8.15024,-8.82362 -17.75994,-15.65449 -26.95285,-23.12055c-5.57247,-4.52571 -10.8178,-9.54181 -16.47183,-13.97937c-3.28032,-2.57455 -6.60878,-4.82981 -9.78258,-7.59067c-5.13113,-3.7117 -10.21353,-7.5066 -15.29492,-11.30231c-5.38033,3.21452 -10.93296,6.05814 -16.25759,9.38743c-2.7307,1.7074 -5.21135,3.88869 -7.94921,5.58345c-1.61829,1.00174 -3.46473,1.51706 -5.08795,2.50937c-3.94311,2.41048 -7.3465,5.90034 -11.26135,8.3877c-4.23514,2.69086 -8.36599,5.18547 -12.40866,8.25245c-8.04475,4.52966 -15.99951,9.56575 -23.60148,14.92661c-2.92465,2.06244 -5.53813,4.68435 -8.4241,6.75326c-1.70909,1.22522 -4.11435,2.0723 -5.96077,2.99766c-2.44497,1.22532 -3.97663,2.35102 -6.56579,3.28724c-2.65557,0.96023 -5.77054,1.37427 -8.49386,2.05696c0,0 -1.70669,0.42784 -2.10054,-1.42613c-0.39385,-1.85397 1.31284,-2.28181 1.31284,-2.28181c2.64072,-0.66199 5.6667,-1.05254 8.24251,-1.98316c2.06829,-0.74726 4.18195,-2.12851 6.14209,-3.11086c1.28916,-0.64609 4.25765,-1.81885 5.50612,-2.72463c2.88189,-2.09087 5.50232,-4.69459 8.43465,-6.76072c7.63141,-5.37711 15.61037,-10.46882 23.69586,-14.99084c4.04772,-3.0855 8.20448,-5.58721 12.45383,-8.28162c3.92946,-2.49158 7.33864,-5.98771 11.29588,-8.40932c1.64001,-1.0036 3.50597,-1.52545 5.13984,-2.54081c2.70415,-1.68048 5.15745,-3.83712 7.85736,-5.52692c4.84067,-3.02963 9.8692,-5.66081 14.78888,-8.52567c-4.28724,-3.19856 -8.58098,-6.38523 -12.90984,-9.51057c-8.91722,-6.43804 -18.29935,-12.10959 -27.46329,-18.08243c-4.27935,-2.78917 -8.5712,-5.45987 -12.95399,-8.04099c-3.96353,-2.3342 -7.64009,-5.31339 -11.62948,-7.57539c-3.85379,-2.18511 -8.20068,-3.44637 -12.05531,-5.54049c-0.72976,-0.39645 -1.2759,-1.11163 -1.96754,-1.58189c-2.95933,-2.01211 -6.26489,-3.5781 -9.27831,-5.54216c0,0 -1.50194,-0.97892 -0.60078,-2.61047c0.90116,-1.63155 2.4031,-0.65261 2.4031,-0.65261c3.02965,1.97465 6.33813,3.54818 9.31766,5.5682c0.62248,0.42202 1.09533,1.09182 1.75166,1.44822c3.84728,2.08908 8.20004,3.35419 12.05056,5.5378c4.00881,2.27338 7.70135,5.26359 11.68436,7.60718c4.4263,2.60442 8.75963,5.30338 13.08037,8.11954c9.20987,6.00277 18.63814,11.70598 27.60001,18.17626c4.83122,3.48803 9.62027,7.0501 14.40464,10.62101c0.29774,-0.18462 0.59481,-0.37069 0.89114,-0.55834c3.6747,-1.99717 7.5692,-3.56334 11.2111,-5.58534c5.6091,-3.11421 11.07272,-6.55304 16.72941,-9.59153c1.96932,-1.05783 4.06529,-1.8376 5.98561,-2.99688c8.04534,-4.85691 15.51783,-10.92014 23.40317,-16.06316c5.19405,-3.3756 10.17603,-7.22521 15.33873,-10.69064l0.6987,-0.46901c0,0 1.49003,-1.00017 2.41075,0.61844z" fill="url(#color-1)" stroke="none" stroke-width="0.5"/></g></g></svg>