<svg version="1.1" xmlns="http://www.w3.org/2000/svg" xmlns:xlink="http://www.w3.org/1999/xlink" width="102.02926" height="102.51108" viewBox="0,0,102.02926,102.51108"><g transform="translate(-188.98537,-128.74446)"><g data-paper-data="{&quot;isPaintingLayer&quot;:true}" fill-rule="nonzero" stroke-linecap="butt" stroke-linejoin="miter" stroke-miterlimit="10" stroke-dasharray="" stroke-dashoffset="0" style="mix-blend-mode: normal"><path d="M189.23537,231.00554v-102.01108h101.52926v102.01108z" fill="#0097ff" stroke="#000000" stroke-width="0.5"/><path d="M281.79143,148.43002v40.21164c0,1.74833 -0.43708,3.05958 -1.74833,3.93375c-12.23833,10.05291 -30.15873,10.05291 -42.83414,0c-4.37083,-3.49666 -9.61583,-5.245 -14.86082,-5.245c-5.68208,0.43708 -10.48999,2.6225 -14.86082,5.68208v27.97332c0,2.18542 -2.18542,4.37083 -4.37083,4.37083h-0.43708c-2.18542,0 -4.37083,-2.18542 -4.37083,-4.37083v-82.17162c0,-2.6225 2.18542,-4.37083 4.37083,-4.37083c2.18542,0 4.37083,1.74833 4.37083,4.37083v1.74833c11.80124,-5.68208 26.22499,-3.93375 36.2779,4.37083c8.74166,6.99333 20.97999,6.99333 29.72165,0c1.31125,-1.31125 3.49666,-1.74833 5.245,-0.87417c2.18542,0.43708 3.49666,2.18542 3.49666,4.37083zM277.4206,148.43002l-0.43708,-0.43708c-0.43708,0 -0.43708,0 -0.87417,0c-10.48999,8.30458 -24.91374,8.30458 -35.40373,0c-9.61583,-7.43041 -22.72832,-8.74166 -33.6554,-2.6225v42.39706c4.80791,-2.6225 9.61583,-4.37083 14.86082,-4.80791c6.55625,0 12.67541,2.18542 17.48332,6.11916c10.92708,8.74166 26.66207,8.74166 37.58915,-0.43708v0z" fill="#45993d" stroke="none" stroke-width="1"/><path d="M277.4206,148.8671l-0.43708,39.77456v0.43708c-10.92708,8.74166 -26.66207,8.74166 -37.58915,0c-4.80791,-3.93375 -10.92708,-6.11916 -17.48332,-6.11916c-5.245,0.43708 -10.05291,2.18542 -14.86082,4.80791v-42.39706c10.92708,-6.11916 24.03957,-4.80791 33.6554,2.6225c10.48999,8.30458 24.91374,8.30458 35.40373,0c0.43708,0 0.43708,0 0.87417,0c0,0.43708 0.43708,0.43708 0.43708,0.87417z" fill="#4cbf56" stroke="none" stroke-width="1"/><text transform="translate(212.5729,222.58569) scale(0.5651,0.5651)" font-size="40" xml:space="preserve" fill="#000000" fill-rule="nonzero" stroke="none" stroke-width="1" stroke-linecap="butt" stroke-linejoin="miter" stroke-miterlimit="10" stroke-dasharray="" stroke-dashoffset="0" font-family="Sans Serif" font-weight="normal" text-anchor="start" style="mix-blend-mode: normal"><tspan x="0" dy="0">Reload</tspan></text></g></g></svg>